<?xml version="1.0" standalone="no"?>
<svg xmlns="http://www.w3.org/2000/svg" version="1.1" width="539.339" height="1000" viewBox="0 0 539.339 1000">

  <rect x="0" y="0" width="539.339" height="1000" fill="none" stroke="black" stroke-width="1" />

  <rect x="123.131" y="0" width="86.546" height="162.47" fill="#ffcccc" stroke="black" stroke-width="0.5" />
  <text x="166.404" y="81.2352" font-family="sans-serif" font-size="17.978" fill="black" text-anchor="middle" dominant-baseline="middle" transform="rotate(-90 166.404 81.2352)">hbk1</text>
  <rect x="166.798" y="741.935" width="44.0598" height="126.279" fill="#ccffcc" stroke="black" stroke-width="0.5" />
  <text x="188.828" y="805.075" font-family="sans-serif" font-size="17.978" fill="black" text-anchor="middle" dominant-baseline="middle">hbk2</text>
  <rect x="452.006" y="915.814" width="87.3328" height="84.1857" fill="#ccccff" stroke="black" stroke-width="0.5" />
  <text x="495.673" y="957.907" font-family="sans-serif" font-size="17.978" fill="black" text-anchor="middle" dominant-baseline="middle" transform="rotate(-90 495.673 957.907)">hbk3</text>
  <rect x="0" y="246.656" width="201.023" height="127.065" fill="#ffe0b3" stroke="black" stroke-width="0.5" />
  <text x="100.511" y="310.189" font-family="sans-serif" font-size="17.978" fill="black" text-anchor="middle" dominant-baseline="middle">hbk4</text>
  <rect x="248.23" y="124.312" width="84.5791" height="127.459" fill="#e0ccff" stroke="black" stroke-width="0.5" />
  <text x="290.519" y="188.041" font-family="sans-serif" font-size="17.978" fill="black" text-anchor="middle" dominant-baseline="middle">hbk5a</text>
  <rect x="217.939" y="712.825" width="127.852" height="203.383" fill="#ccffff" stroke="black" stroke-width="0.5" />
  <text x="281.865" y="814.516" font-family="sans-serif" font-size="17.978" fill="black" text-anchor="middle" dominant-baseline="middle" transform="rotate(-90 281.865 814.516)">hbk5b</text>
  <rect x="389.457" y="744.689" width="46.4201" height="88.9064" fill="#ffcccc" stroke="black" stroke-width="0.5" />
  <text x="412.667" y="789.142" font-family="sans-serif" font-size="17.978" fill="black" text-anchor="middle" dominant-baseline="middle">hbk5c</text>
  <rect x="201.81" y="251.77" width="86.1526" height="167.978" fill="#ccffcc" stroke="black" stroke-width="0.5" />
  <text x="244.886" y="335.759" font-family="sans-serif" font-size="17.978" fill="black" text-anchor="middle" dominant-baseline="middle">hbk6</text>
  <rect x="456.334" y="579.858" width="83.0055" height="207.71" fill="#ccccff" stroke="black" stroke-width="0.5" />
  <text x="497.836" y="683.714" font-family="sans-serif" font-size="17.978" fill="black" text-anchor="middle" dominant-baseline="middle">hbk7</text>
  <rect x="0" y="127.459" width="122.738" height="90.0865" fill="#ffe0b3" stroke="black" stroke-width="0.5" />
  <text x="61.369" y="172.502" font-family="sans-serif" font-size="17.978" fill="black" text-anchor="middle" dominant-baseline="middle">hbk8a</text>
  <rect x="201.81" y="626.279" width="165.224" height="83.7923" fill="#e0ccff" stroke="black" stroke-width="0.5" />
  <text x="284.422" y="668.175" font-family="sans-serif" font-size="17.978" fill="black" text-anchor="middle" dominant-baseline="middle" transform="rotate(-90 284.422 668.175)">hbk8b</text>
  <rect x="287.962" y="251.77" width="44.8466" height="126.279" fill="#ccffff" stroke="black" stroke-width="0.5" />
  <text x="310.386" y="314.91" font-family="sans-serif" font-size="17.978" fill="black" text-anchor="middle" dominant-baseline="middle">hbk9a</text>
  <rect x="88.9064" y="912.667" width="84.5791" height="87.3328" fill="#ffcccc" stroke="black" stroke-width="0.5" />
  <text x="131.196" y="956.334" font-family="sans-serif" font-size="17.978" fill="black" text-anchor="middle" dominant-baseline="middle">hbk9b</text>
  <rect x="209.677" y="0" width="127.065" height="124.312" fill="#ccffcc" stroke="black" stroke-width="0.5" />
  <text x="273.21" y="62.1558" font-family="sans-serif" font-size="17.978" fill="black" text-anchor="middle" dominant-baseline="middle" transform="rotate(-90 273.21 62.1558)">hbk9c</text>
  <rect x="372.541" y="415.814" width="166.798" height="164.044" fill="#ccccff" stroke="black" stroke-width="0.5" />
  <text x="455.94" y="497.836" font-family="sans-serif" font-size="17.978" fill="black" text-anchor="middle" dominant-baseline="middle" transform="rotate(-90 455.94 497.836)">hbk9d</text>
  <rect x="332.809" y="126.672" width="206.53" height="203.777" fill="#ffe0b3" stroke="black" stroke-width="0.5" />
  <text x="436.074" y="228.56" font-family="sans-serif" font-size="17.978" fill="black" text-anchor="middle" dominant-baseline="middle" transform="rotate(-90 436.074 228.56)">hbk10a</text>
  <rect x="453.186" y="787.569" width="86.1526" height="128.245" fill="#e0ccff" stroke="black" stroke-width="0.5" />
  <text x="496.263" y="851.692" font-family="sans-serif" font-size="17.978" fill="black" text-anchor="middle" dominant-baseline="middle">hbk10b</text>
  <rect x="367.034" y="583.399" width="89.2998" height="161.29" fill="#ccffff" stroke="black" stroke-width="0.5" />
  <text x="411.684" y="664.044" font-family="sans-serif" font-size="17.978" fill="black" text-anchor="middle" dominant-baseline="middle" transform="rotate(-90 411.684 664.044)">hbk10c</text>
  <rect x="345.791" y="744.689" width="43.6664" height="129.032" fill="#ffcccc" stroke="black" stroke-width="0.5" />
  <text x="367.624" y="809.205" font-family="sans-serif" font-size="17.978" fill="black" text-anchor="middle" dominant-baseline="middle">hbk11</text>
  <rect x="263.572" y="916.601" width="90.0865" height="83.3989" fill="#ccffcc" stroke="black" stroke-width="0.5" />
  <text x="308.615" y="958.301" font-family="sans-serif" font-size="17.978" fill="black" text-anchor="middle" dominant-baseline="middle" transform="rotate(-90 308.615 958.301)">hbk12</text>
  <rect x="0" y="579.858" width="201.81" height="125.885" fill="#ccccff" stroke="black" stroke-width="0.5" />
  <text x="100.905" y="642.801" font-family="sans-serif" font-size="17.978" fill="black" text-anchor="middle" dominant-baseline="middle">hbk13</text>
  <rect x="367.821" y="873.721" width="84.1857" height="126.279" fill="#ffe0b3" stroke="black" stroke-width="0.5" />
  <text x="409.913" y="936.861" font-family="sans-serif" font-size="17.978" fill="black" text-anchor="middle" dominant-baseline="middle">hbk14a</text>
  <rect x="336.743" y="0" width="202.596" height="126.672" fill="#e0ccff" stroke="black" stroke-width="0.5" />
  <text x="438.041" y="63.336" font-family="sans-serif" font-size="17.978" fill="black" text-anchor="middle" dominant-baseline="middle">hbk14b</text>
  <rect x="123.131" y="162.47" width="87.7262" height="45.6334" fill="#ccffff" stroke="black" stroke-width="0.5" />
  <text x="166.994" y="185.287" font-family="sans-serif" font-size="17.978" fill="black" text-anchor="middle" dominant-baseline="middle" transform="rotate(-90 166.994 185.287)">hbk14c</text>
  <rect x="372.541" y="330.448" width="166.798" height="85.3659" fill="#ffcccc" stroke="black" stroke-width="0.5" />
  <text x="455.94" y="373.131" font-family="sans-serif" font-size="17.978" fill="black" text-anchor="middle" dominant-baseline="middle" transform="rotate(-90 455.94 373.131)">hbk15a</text>
  <rect x="204.17" y="419.748" width="85.7592" height="206.53" fill="#ccffcc" stroke="black" stroke-width="0.5" />
  <text x="247.05" y="523.013" font-family="sans-serif" font-size="17.978" fill="black" text-anchor="middle" dominant-baseline="middle">hbk15b</text>
  <rect x="0" y="874.508" width="88.9064" height="125.492" fill="#ccccff" stroke="black" stroke-width="0.5" />
  <text x="44.4532" y="937.254" font-family="sans-serif" font-size="17.978" fill="black" text-anchor="middle" dominant-baseline="middle" transform="rotate(-90 44.4532 937.254)">hbk16</text>
  <rect x="289.929" y="415.421" width="82.6121" height="167.978" fill="#ffe0b3" stroke="black" stroke-width="0.5" />
  <text x="331.235" y="499.41" font-family="sans-serif" font-size="17.978" fill="black" text-anchor="middle" dominant-baseline="middle">hbk17a</text>
  <rect x="88.9064" y="868.214" width="129.032" height="44.4532" fill="#e0ccff" stroke="black" stroke-width="0.5" />
  <text x="153.423" y="890.441" font-family="sans-serif" font-size="17.978" fill="black" text-anchor="middle" dominant-baseline="middle" transform="rotate(-90 153.423 890.441)">hbk17b</text>
  <rect x="173.485" y="916.208" width="90.0865" height="83.7923" fill="#ccffff" stroke="black" stroke-width="0.5" />
  <text x="218.529" y="958.104" font-family="sans-serif" font-size="17.978" fill="black" text-anchor="middle" dominant-baseline="middle" transform="rotate(-90 218.529 958.104)">hbk18</text>
  <rect x="0" y="-5.18791e-12" width="123.131" height="127.459" fill="#ffcccc" stroke="black" stroke-width="0.5" />
  <text x="61.5657" y="63.7293" font-family="sans-serif" font-size="17.978" fill="black" text-anchor="middle" dominant-baseline="middle">hbk19</text>
  <rect x="0" y="705.744" width="166.798" height="162.47" fill="#ccffcc" stroke="black" stroke-width="0.5" />
  <text x="83.3989" y="786.979" font-family="sans-serif" font-size="17.978" fill="black" text-anchor="middle" dominant-baseline="middle" transform="rotate(-90 83.3989 786.979)">hbk20</text>
  <rect x="0" y="373.721" width="201.81" height="206.137" fill="#ccccff" stroke="black" stroke-width="0.5" />
  <text x="100.905" y="476.79" font-family="sans-serif" font-size="17.978" fill="black" text-anchor="middle" dominant-baseline="middle">hbk21</text>


</svg>
