<?xml version="1.0" standalone="no"?>
<svg xmlns="http://www.w3.org/2000/svg" version="1.1" width="1000" height="686" viewBox="0 0 1000 686">

  <rect x="0" y="0" width="1000" height="686" fill="none" stroke="black" stroke-width="1" />

  <rect x="912" y="342.8" width="88" height="165.2" fill="#ffcccc" stroke="black" stroke-width="0.5" />
  <text x="956" y="425.4" font-family="sans-serif" font-size="22.8667" fill="black" text-anchor="middle" dominant-baseline="middle" transform="rotate(-90 956 425.4)">hbk1</text>
  <rect x="781.6" y="512" width="44.8" height="128.4" fill="#ccffcc" stroke="black" stroke-width="0.5" />
  <text x="804" y="576.2" font-family="sans-serif" font-size="22.8667" fill="black" text-anchor="middle" dominant-baseline="middle">hbk2</text>
  <rect x="819.6" y="426.4" width="88.8" height="85.6" fill="#ccccff" stroke="black" stroke-width="0.5" />
  <text x="864" y="469.2" font-family="sans-serif" font-size="22.8667" fill="black" text-anchor="middle" dominant-baseline="middle" transform="rotate(-90 864 469.2)">hbk3</text>
  <rect x="89.2" y="178.8" width="129.2" height="204.4" fill="#ffe0b3" stroke="black" stroke-width="0.5" />
  <text x="153.8" y="281" font-family="sans-serif" font-size="22.8667" fill="black" text-anchor="middle" dominant-baseline="middle" transform="rotate(-90 153.8 281)">hbk4</text>
  <rect x="728.8" y="166.8" width="129.6" height="86" fill="#e0ccff" stroke="black" stroke-width="0.5" />
  <text x="793.6" y="209.8" font-family="sans-serif" font-size="22.8667" fill="black" text-anchor="middle" dominant-baseline="middle" transform="rotate(-90 793.6 209.8)">hbk5a</text>
  <rect x="522" y="336" width="206.8" height="130" fill="#ccffff" stroke="black" stroke-width="0.5" />
  <text x="625.4" y="401" font-family="sans-serif" font-size="22.8667" fill="black" text-anchor="middle" dominant-baseline="middle">hbk5b</text>
  <rect x="218.8" y="296.4" width="47.2" height="90.4" fill="#ffcccc" stroke="black" stroke-width="0.5" />
  <text x="242.4" y="341.6" font-family="sans-serif" font-size="22.8667" fill="black" text-anchor="middle" dominant-baseline="middle">hbk5c</text>
  <rect x="773.2" y="252.8" width="170.8" height="87.6" fill="#ccffcc" stroke="black" stroke-width="0.5" />
  <text x="858.6" y="296.6" font-family="sans-serif" font-size="22.8667" fill="black" text-anchor="middle" dominant-baseline="middle" transform="rotate(-90 858.6 296.6)">hbk6</text>
  <rect x="697.2" y="474.8" width="84.4" height="211.2" fill="#ccccff" stroke="black" stroke-width="0.5" />
  <text x="739.4" y="580.4" font-family="sans-serif" font-size="22.8667" fill="black" text-anchor="middle" dominant-baseline="middle">hbk7</text>
  <rect x="518.8" y="466" width="91.6" height="124.8" fill="#ffe0b3" stroke="black" stroke-width="0.5" />
  <text x="564.6" y="528.4" font-family="sans-serif" font-size="22.8667" fill="black" text-anchor="middle" dominant-baseline="middle" transform="rotate(-90 564.6 528.4)">hbk8a</text>
  <rect x="346" y="10.8" width="85.2" height="168" fill="#e0ccff" stroke="black" stroke-width="0.5" />
  <text x="388.6" y="94.8" font-family="sans-serif" font-size="22.8667" fill="black" text-anchor="middle" dominant-baseline="middle">hbk8b</text>
  <rect x="787.6" y="640.4" width="128.4" height="45.6" fill="#ccffff" stroke="black" stroke-width="0.5" />
  <text x="851.8" y="663.2" font-family="sans-serif" font-size="22.8667" fill="black" text-anchor="middle" dominant-baseline="middle" transform="rotate(-90 851.8 663.2)">hbk9a</text>
  <rect x="819.6" y="340.4" width="88.8" height="86" fill="#ffcccc" stroke="black" stroke-width="0.5" />
  <text x="864" y="383.4" font-family="sans-serif" font-size="22.8667" fill="black" text-anchor="middle" dominant-baseline="middle" transform="rotate(-90 864 383.4)">hbk9b</text>
  <rect x="0" y="556.8" width="126.4" height="129.2" fill="#ccffcc" stroke="black" stroke-width="0.5" />
  <text x="63.2" y="621.4" font-family="sans-serif" font-size="22.8667" fill="black" text-anchor="middle" dominant-baseline="middle">hbk9c</text>
  <rect x="96.4" y="386.8" width="169.6" height="166.8" fill="#ccccff" stroke="black" stroke-width="0.5" />
  <text x="181.2" y="470.2" font-family="sans-serif" font-size="22.8667" fill="black" text-anchor="middle" dominant-baseline="middle" transform="rotate(-90 181.2 470.2)">hbk9d</text>
  <rect x="518.8" y="0" width="210" height="207.2" fill="#ffe0b3" stroke="black" stroke-width="0.5" />
  <text x="623.8" y="103.6" font-family="sans-serif" font-size="22.8667" fill="black" text-anchor="middle" dominant-baseline="middle" transform="rotate(-90 623.8 103.6)">hbk10a</text>
  <rect x="431.2" y="48.4" width="87.6" height="130.4" fill="#e0ccff" stroke="black" stroke-width="0.5" />
  <text x="475" y="113.6" font-family="sans-serif" font-size="22.8667" fill="black" text-anchor="middle" dominant-baseline="middle">hbk10b</text>
  <rect x="218.4" y="132.4" width="90.8" height="164" fill="#ccffff" stroke="black" stroke-width="0.5" />
  <text x="263.8" y="214.4" font-family="sans-serif" font-size="22.8667" fill="black" text-anchor="middle" dominant-baseline="middle" transform="rotate(-90 263.8 214.4)">hbk10c</text>
  <rect x="728.8" y="276" width="44.4" height="131.2" fill="#ffcccc" stroke="black" stroke-width="0.5" />
  <text x="751" y="341.6" font-family="sans-serif" font-size="22.8667" fill="black" text-anchor="middle" dominant-baseline="middle">hbk11</text>
  <rect x="11.6" y="383.2" width="84.8" height="91.6" fill="#ccffcc" stroke="black" stroke-width="0.5" />
  <text x="54" y="429" font-family="sans-serif" font-size="22.8667" fill="black" text-anchor="middle" dominant-baseline="middle">hbk12</text>
  <rect x="728.8" y="38.8" width="205.2" height="128" fill="#ccccff" stroke="black" stroke-width="0.5" />
  <text x="831.4" y="102.8" font-family="sans-serif" font-size="22.8667" fill="black" text-anchor="middle" dominant-baseline="middle">hbk13</text>
  <rect x="826.4" y="512" width="85.6" height="128.4" fill="#ffe0b3" stroke="black" stroke-width="0.5" />
  <text x="869.2" y="576.2" font-family="sans-serif" font-size="22.8667" fill="black" text-anchor="middle" dominant-baseline="middle">hbk14a</text>
  <rect x="522.8" y="207.2" width="206" height="128.8" fill="#e0ccff" stroke="black" stroke-width="0.5" />
  <text x="625.8" y="271.6" font-family="sans-serif" font-size="22.8667" fill="black" text-anchor="middle" dominant-baseline="middle">hbk14b</text>
  <rect x="773.2" y="385.6" width="46.4" height="89.2" fill="#ccffff" stroke="black" stroke-width="0.5" />
  <text x="796.4" y="430.2" font-family="sans-serif" font-size="22.8667" fill="black" text-anchor="middle" dominant-baseline="middle">hbk14c</text>
  <rect x="610.4" y="508" width="86.8" height="169.6" fill="#ffcccc" stroke="black" stroke-width="0.5" />
  <text x="653.8" y="592.8" font-family="sans-serif" font-size="22.8667" fill="black" text-anchor="middle" dominant-baseline="middle">hbk15a</text>
  <rect x="179.2" y="553.6" width="210" height="87.2" fill="#ccffcc" stroke="black" stroke-width="0.5" />
  <text x="284.2" y="597.2" font-family="sans-serif" font-size="22.8667" fill="black" text-anchor="middle" dominant-baseline="middle" transform="rotate(-90 284.2 597.2)">hbk15b</text>
  <rect x="0" y="51.2" width="90.4" height="127.6" fill="#ccccff" stroke="black" stroke-width="0.5" />
  <text x="45.2" y="115" font-family="sans-serif" font-size="22.8667" fill="black" text-anchor="middle" dominant-baseline="middle" transform="rotate(-90 45.2 115)">hbk16</text>
  <rect x="916" y="512" width="84" height="170.8" fill="#ffe0b3" stroke="black" stroke-width="0.5" />
  <text x="958" y="597.4" font-family="sans-serif" font-size="22.8667" fill="black" text-anchor="middle" dominant-baseline="middle">hbk17a</text>
  <rect x="205.2" y="640.8" width="131.2" height="45.2" fill="#e0ccff" stroke="black" stroke-width="0.5" />
  <text x="270.8" y="663.4" font-family="sans-serif" font-size="22.8667" fill="black" text-anchor="middle" dominant-baseline="middle" transform="rotate(-90 270.8 663.4)">hbk17b</text>
  <rect x="431.2" y="422.8" width="85.2" height="91.6" fill="#ccffff" stroke="black" stroke-width="0.5" />
  <text x="473.8" y="468.6" font-family="sans-serif" font-size="22.8667" fill="black" text-anchor="middle" dominant-baseline="middle">hbk18</text>
  <rect x="389.2" y="553.6" width="129.6" height="125.2" fill="#ffcccc" stroke="black" stroke-width="0.5" />
  <text x="454" y="616.2" font-family="sans-serif" font-size="22.8667" fill="black" text-anchor="middle" dominant-baseline="middle" transform="rotate(-90 454 616.2)">hbk19</text>
  <rect x="266" y="384" width="165.2" height="169.6" fill="#ccffcc" stroke="black" stroke-width="0.5" />
  <text x="348.6" y="468.8" font-family="sans-serif" font-size="22.8667" fill="black" text-anchor="middle" dominant-baseline="middle">hbk20</text>
  <rect x="309.2" y="178.8" width="209.6" height="205.2" fill="#ccccff" stroke="black" stroke-width="0.5" />
  <text x="414" y="281.4" font-family="sans-serif" font-size="22.8667" fill="black" text-anchor="middle" dominant-baseline="middle" transform="rotate(-90 414 281.4)">hbk21</text>

  <line x1="801.4" y1="502.4" x2="851.8" y2="663.2" stroke="#0000cc" stroke-width="2" stroke-opacity="0.7" />
  <line x1="801.4" y1="502.4" x2="751" y2="341.6" stroke="#0000cc" stroke-width="2" stroke-opacity="0.7" />
  <line x1="476.6" y1="311.6" x2="564.6" y2="528.4" stroke="#cc0000" stroke-width="2" stroke-opacity="0.7" />
  <line x1="476.6" y1="311.6" x2="388.6" y2="94.8" stroke="#cc0000" stroke-width="2" stroke-opacity="0.7" />
  <line x1="525.667" y1="242.267" x2="564.6" y2="528.4" stroke="#009900" stroke-width="2" stroke-opacity="0.7" />
  <line x1="525.667" y1="242.267" x2="388.6" y2="94.8" stroke="#009900" stroke-width="2" stroke-opacity="0.7" />
  <line x1="525.667" y1="242.267" x2="623.8" y2="103.6" stroke="#009900" stroke-width="2" stroke-opacity="0.7" />
  <line x1="857.9" y1="523.3" x2="851.8" y2="663.2" stroke="#9933cc" stroke-width="2" stroke-opacity="0.7" />
  <line x1="857.9" y1="523.3" x2="864" y2="383.4" stroke="#9933cc" stroke-width="2" stroke-opacity="0.7" />
  <line x1="463.9" y1="542.4" x2="473.8" y2="468.6" stroke="#ff9900" stroke-width="2" stroke-opacity="0.7" />
  <line x1="463.9" y1="542.4" x2="454" y2="616.2" stroke="#ff9900" stroke-width="2" stroke-opacity="0.7" />
  <line x1="489.3" y1="404.9" x2="564.6" y2="528.4" stroke="#0099cc" stroke-width="2" stroke-opacity="0.7" />
  <line x1="489.3" y1="404.9" x2="414" y2="281.4" stroke="#0099cc" stroke-width="2" stroke-opacity="0.7" />
  <line x1="791.2" y1="222.2" x2="751" y2="341.6" stroke="#cc0099" stroke-width="2" stroke-opacity="0.7" />
  <line x1="791.2" y1="222.2" x2="831.4" y2="102.8" stroke="#cc0099" stroke-width="2" stroke-opacity="0.7" />
  <line x1="832.8" y1="503.2" x2="869.2" y2="576.2" stroke="#666600" stroke-width="2" stroke-opacity="0.7" />
  <line x1="832.8" y1="503.2" x2="796.4" y2="430.2" stroke="#666600" stroke-width="2" stroke-opacity="0.7" />
  <line x1="775.333" y1="360" x2="625.4" y2="401" stroke="#0000cc" stroke-width="2" stroke-opacity="0.7" />
  <line x1="775.333" y1="360" x2="831.4" y2="102.8" stroke="#0000cc" stroke-width="2" stroke-opacity="0.7" />
  <line x1="775.333" y1="360" x2="869.2" y2="576.2" stroke="#0000cc" stroke-width="2" stroke-opacity="0.7" />
  <line x1="455" y1="434.4" x2="625.8" y2="271.6" stroke="#cc0000" stroke-width="2" stroke-opacity="0.7" />
  <line x1="455" y1="434.4" x2="284.2" y2="597.2" stroke="#cc0000" stroke-width="2" stroke-opacity="0.7" />
  <line x1="469" y1="595" x2="653.8" y2="592.8" stroke="#009900" stroke-width="2" stroke-opacity="0.7" />
  <line x1="469" y1="595" x2="284.2" y2="597.2" stroke="#009900" stroke-width="2" stroke-opacity="0.7" />
  <line x1="725.1" y1="511.5" x2="796.4" y2="430.2" stroke="#9933cc" stroke-width="2" stroke-opacity="0.7" />
  <line x1="725.1" y1="511.5" x2="653.8" y2="592.8" stroke="#9933cc" stroke-width="2" stroke-opacity="0.7" />
  <line x1="747.5" y1="423.9" x2="869.2" y2="576.2" stroke="#ff9900" stroke-width="2" stroke-opacity="0.7" />
  <line x1="747.5" y1="423.9" x2="625.8" y2="271.6" stroke="#ff9900" stroke-width="2" stroke-opacity="0.7" />
  <line x1="597.971" y1="569.343" x2="804" y2="576.2" stroke="#0099cc" stroke-width="2" stroke-opacity="0.7" />
  <line x1="597.971" y1="569.343" x2="864" y2="469.2" stroke="#0099cc" stroke-width="2" stroke-opacity="0.7" />
  <line x1="597.971" y1="569.343" x2="181.2" y2="470.2" stroke="#0099cc" stroke-width="2" stroke-opacity="0.7" />
  <line x1="597.971" y1="569.343" x2="653.8" y2="592.8" stroke="#0099cc" stroke-width="2" stroke-opacity="0.7" />
  <line x1="597.971" y1="569.343" x2="958" y2="597.4" stroke="#0099cc" stroke-width="2" stroke-opacity="0.7" />
  <line x1="597.971" y1="569.343" x2="270.8" y2="663.4" stroke="#0099cc" stroke-width="2" stroke-opacity="0.7" />
  <line x1="597.971" y1="569.343" x2="454" y2="616.2" stroke="#0099cc" stroke-width="2" stroke-opacity="0.7" />
  <line x1="742.6" y1="347.8" x2="831.4" y2="102.8" stroke="#cc0099" stroke-width="2" stroke-opacity="0.7" />
  <line x1="742.6" y1="347.8" x2="653.8" y2="592.8" stroke="#cc0099" stroke-width="2" stroke-opacity="0.7" />
  <line x1="813.9" y1="266.5" x2="831.4" y2="102.8" stroke="#666600" stroke-width="2" stroke-opacity="0.7" />
  <line x1="813.9" y1="266.5" x2="796.4" y2="430.2" stroke="#666600" stroke-width="2" stroke-opacity="0.7" />
  <line x1="728.4" y1="251.9" x2="625.4" y2="401" stroke="#0000cc" stroke-width="2" stroke-opacity="0.7" />
  <line x1="728.4" y1="251.9" x2="831.4" y2="102.8" stroke="#0000cc" stroke-width="2" stroke-opacity="0.7" />
  <line x1="546" y1="324.667" x2="625.4" y2="401" stroke="#cc0000" stroke-width="2" stroke-opacity="0.7" />
  <line x1="546" y1="324.667" x2="181.2" y2="470.2" stroke="#cc0000" stroke-width="2" stroke-opacity="0.7" />
  <line x1="546" y1="324.667" x2="831.4" y2="102.8" stroke="#cc0000" stroke-width="2" stroke-opacity="0.7" />
  <line x1="709.5" y1="305.4" x2="793.6" y2="209.8" stroke="#009900" stroke-width="2" stroke-opacity="0.7" />
  <line x1="709.5" y1="305.4" x2="625.4" y2="401" stroke="#009900" stroke-width="2" stroke-opacity="0.7" />
  <line x1="634.3" y1="161.7" x2="793.6" y2="209.8" stroke="#9933cc" stroke-width="2" stroke-opacity="0.7" />
  <line x1="634.3" y1="161.7" x2="475" y2="113.6" stroke="#9933cc" stroke-width="2" stroke-opacity="0.7" />
  <line x1="700" y1="142.067" x2="793.6" y2="209.8" stroke="#ff9900" stroke-width="2" stroke-opacity="0.7" />
  <line x1="700" y1="142.067" x2="475" y2="113.6" stroke="#ff9900" stroke-width="2" stroke-opacity="0.7" />
  <line x1="700" y1="142.067" x2="831.4" y2="102.8" stroke="#ff9900" stroke-width="2" stroke-opacity="0.7" />
  <line x1="312.5" y1="363.8" x2="181.2" y2="470.2" stroke="#0099cc" stroke-width="2" stroke-opacity="0.7" />
  <line x1="312.5" y1="363.8" x2="263.8" y2="214.4" stroke="#0099cc" stroke-width="2" stroke-opacity="0.7" />
  <line x1="312.5" y1="363.8" x2="751" y2="341.6" stroke="#0099cc" stroke-width="2" stroke-opacity="0.7" />
  <line x1="312.5" y1="363.8" x2="54" y2="429" stroke="#0099cc" stroke-width="2" stroke-opacity="0.7" />
  <line x1="117.6" y1="449.6" x2="181.2" y2="470.2" stroke="#cc0099" stroke-width="2" stroke-opacity="0.7" />
  <line x1="117.6" y1="449.6" x2="54" y2="429" stroke="#cc0099" stroke-width="2" stroke-opacity="0.7" />
  <line x1="166.333" y1="371.2" x2="181.2" y2="470.2" stroke="#666600" stroke-width="2" stroke-opacity="0.7" />
  <line x1="166.333" y1="371.2" x2="263.8" y2="214.4" stroke="#666600" stroke-width="2" stroke-opacity="0.7" />
  <line x1="166.333" y1="371.2" x2="54" y2="429" stroke="#666600" stroke-width="2" stroke-opacity="0.7" />
  <line x1="313.8" y1="374.8" x2="153.8" y2="281" stroke="#0000cc" stroke-width="2" stroke-opacity="0.7" />
  <line x1="313.8" y1="374.8" x2="473.8" y2="468.6" stroke="#0000cc" stroke-width="2" stroke-opacity="0.7" />
  <line x1="855.2" y1="479.9" x2="858.6" y2="296.6" stroke="#cc0000" stroke-width="2" stroke-opacity="0.7" />
  <line x1="855.2" y1="479.9" x2="851.8" y2="663.2" stroke="#cc0000" stroke-width="2" stroke-opacity="0.7" />
  <line x1="620.2" y1="379" x2="388.6" y2="94.8" stroke="#009900" stroke-width="2" stroke-opacity="0.7" />
  <line x1="620.2" y1="379" x2="851.8" y2="663.2" stroke="#009900" stroke-width="2" stroke-opacity="0.7" />
  <line x1="858.133" y1="447.733" x2="858.6" y2="296.6" stroke="#9933cc" stroke-width="2" stroke-opacity="0.7" />
  <line x1="858.133" y1="447.733" x2="851.8" y2="663.2" stroke="#9933cc" stroke-width="2" stroke-opacity="0.7" />
  <line x1="858.133" y1="447.733" x2="864" y2="383.4" stroke="#9933cc" stroke-width="2" stroke-opacity="0.7" />
  <line x1="506.2" y1="99.2" x2="388.6" y2="94.8" stroke="#ff9900" stroke-width="2" stroke-opacity="0.7" />
  <line x1="506.2" y1="99.2" x2="623.8" y2="103.6" stroke="#ff9900" stroke-width="2" stroke-opacity="0.7" />
  <line x1="720.867" y1="468.467" x2="858.6" y2="296.6" stroke="#0099cc" stroke-width="2" stroke-opacity="0.7" />
  <line x1="720.867" y1="468.467" x2="739.4" y2="580.4" stroke="#0099cc" stroke-width="2" stroke-opacity="0.7" />
  <line x1="720.867" y1="468.467" x2="564.6" y2="528.4" stroke="#0099cc" stroke-width="2" stroke-opacity="0.7" />
  <line x1="555.533" y1="518.067" x2="864" y2="469.2" stroke="#cc0099" stroke-width="2" stroke-opacity="0.7" />
  <line x1="555.533" y1="518.067" x2="454" y2="616.2" stroke="#cc0099" stroke-width="2" stroke-opacity="0.7" />
  <line x1="555.533" y1="518.067" x2="348.6" y2="468.8" stroke="#cc0099" stroke-width="2" stroke-opacity="0.7" />
  <line x1="401.3" y1="542.5" x2="454" y2="616.2" stroke="#666600" stroke-width="2" stroke-opacity="0.7" />
  <line x1="401.3" y1="542.5" x2="348.6" y2="468.8" stroke="#666600" stroke-width="2" stroke-opacity="0.7" />
  <line x1="411.2" y1="468.7" x2="473.8" y2="468.6" stroke="#0000cc" stroke-width="2" stroke-opacity="0.7" />
  <line x1="411.2" y1="468.7" x2="348.6" y2="468.8" stroke="#0000cc" stroke-width="2" stroke-opacity="0.7" />
  <line x1="606.3" y1="469" x2="864" y2="469.2" stroke="#cc0000" stroke-width="2" stroke-opacity="0.7" />
  <line x1="606.3" y1="469" x2="348.6" y2="468.8" stroke="#cc0000" stroke-width="2" stroke-opacity="0.7" />
  <line x1="834" y1="522.7" x2="804" y2="576.2" stroke="#009900" stroke-width="2" stroke-opacity="0.7" />
  <line x1="834" y1="522.7" x2="864" y2="469.2" stroke="#009900" stroke-width="2" stroke-opacity="0.7" />
  <line x1="489.3" y1="404.9" x2="564.6" y2="528.4" stroke="#9933cc" stroke-width="2" stroke-opacity="0.7" />
  <line x1="489.3" y1="404.9" x2="414" y2="281.4" stroke="#9933cc" stroke-width="2" stroke-opacity="0.7" />
  <line x1="799" y1="438.5" x2="858.6" y2="296.6" stroke="#ff9900" stroke-width="2" stroke-opacity="0.7" />
  <line x1="799" y1="438.5" x2="739.4" y2="580.4" stroke="#ff9900" stroke-width="2" stroke-opacity="0.7" />
  <line x1="801.7" y1="481.9" x2="739.4" y2="580.4" stroke="#0099cc" stroke-width="2" stroke-opacity="0.7" />
  <line x1="801.7" y1="481.9" x2="864" y2="383.4" stroke="#0099cc" stroke-width="2" stroke-opacity="0.7" />
  <line x1="496.7" y1="341.6" x2="242.4" y2="341.6" stroke="#cc0099" stroke-width="2" stroke-opacity="0.7" />
  <line x1="496.7" y1="341.6" x2="751" y2="341.6" stroke="#cc0099" stroke-width="2" stroke-opacity="0.7" />
  <line x1="910" y1="447.3" x2="956" y2="425.4" stroke="#666600" stroke-width="2" stroke-opacity="0.7" />
  <line x1="910" y1="447.3" x2="864" y2="469.2" stroke="#666600" stroke-width="2" stroke-opacity="0.7" />
  <line x1="652.3" y1="447.1" x2="956" y2="425.4" stroke="#0000cc" stroke-width="2" stroke-opacity="0.7" />
  <line x1="652.3" y1="447.1" x2="348.6" y2="468.8" stroke="#0000cc" stroke-width="2" stroke-opacity="0.7" />
  <line x1="478.9" y1="428.6" x2="804" y2="576.2" stroke="#cc0000" stroke-width="2" stroke-opacity="0.7" />
  <line x1="478.9" y1="428.6" x2="153.8" y2="281" stroke="#cc0000" stroke-width="2" stroke-opacity="0.7" />
  <line x1="880" y1="500.8" x2="956" y2="425.4" stroke="#009900" stroke-width="2" stroke-opacity="0.7" />
  <line x1="880" y1="500.8" x2="804" y2="576.2" stroke="#009900" stroke-width="2" stroke-opacity="0.7" />
  <rect x="-3" y="340.2" width="6" height="6" fill="#ff0000" stroke="black" stroke-width="0.5" />
  <text x="8" y="349.2" font-family="sans-serif" font-size="12" fill="black">pad0</text>
  <rect x="497" y="-3" width="6" height="6" fill="#ff0000" stroke="black" stroke-width="0.5" />
  <text x="500" y="18" font-family="sans-serif" font-size="12" fill="black">pad1</text>
  <rect x="997" y="340.2" width="6" height="6" fill="#ff0000" stroke="black" stroke-width="0.5" />
  <text x="969" y="349.2" font-family="sans-serif" font-size="12" fill="black">pad2</text>
  <rect x="497" y="683" width="6" height="6" fill="#ff0000" stroke="black" stroke-width="0.5" />
  <text x="500" y="678" font-family="sans-serif" font-size="12" fill="black">pad3</text>

</svg>
