<?xml version="1.0" standalone="no"?>
<svg xmlns="http://www.w3.org/2000/svg" version="1.1" width="1000" height="909.091" viewBox="0 0 1000 909.091">

  <rect x="0" y="0" width="1000" height="909.091" fill="none" stroke="black" stroke-width="1" />

  <rect x="0" y="181.818" width="545.455" height="727.273" fill="#ffcccc" stroke="black" stroke-width="0.5" />
  <text x="272.727" y="545.455" font-family="sans-serif" font-size="30.303" fill="black" text-anchor="middle" dominant-baseline="middle">hb0</text>
  <rect x="545.455" y="181.818" width="454.545" height="727.273" fill="#ccffcc" stroke="black" stroke-width="0.5" />
  <text x="772.727" y="545.455" font-family="sans-serif" font-size="30.303" fill="black" text-anchor="middle" dominant-baseline="middle">hb1</text>
  <rect x="0" y="0" width="1000" height="181.818" fill="#ccccff" stroke="black" stroke-width="0.5" />
  <text x="500" y="90.9091" font-family="sans-serif" font-size="30.303" fill="black" text-anchor="middle" dominant-baseline="middle">hb2</text>

  <line x1="493.506" y1="428.571" x2="272.727" y2="545.455" stroke="#0000cc" stroke-width="2" stroke-opacity="0.7" />
  <line x1="493.506" y1="428.571" x2="772.727" y2="545.455" stroke="#0000cc" stroke-width="2" stroke-opacity="0.7" />
  <line x1="493.506" y1="428.571" x2="500" y2="90.9091" stroke="#0000cc" stroke-width="2" stroke-opacity="0.7" />
  <line x1="493.506" y1="428.571" x2="454.545" y2="909.091" stroke="#0000cc" stroke-width="2" stroke-opacity="0.7" />
  <line x1="493.506" y1="428.571" x2="1000" y2="454.545" stroke="#0000cc" stroke-width="2" stroke-opacity="0.7" />
  <line x1="493.506" y1="428.571" x2="454.545" y2="0" stroke="#0000cc" stroke-width="2" stroke-opacity="0.7" />
  <line x1="493.506" y1="428.571" x2="0" y2="454.545" stroke="#0000cc" stroke-width="2" stroke-opacity="0.7" />
  <rect x="451.545" y="906.091" width="6" height="6" fill="#ff0000" stroke="black" stroke-width="0.5" />
  <text x="454.545" y="901.091" font-family="sans-serif" font-size="12" fill="black">pad0</text>
  <rect x="997" y="451.545" width="6" height="6" fill="#ff0000" stroke="black" stroke-width="0.5" />
  <text x="969" y="460.545" font-family="sans-serif" font-size="12" fill="black">pad1</text>
  <rect x="451.545" y="-3" width="6" height="6" fill="#ff0000" stroke="black" stroke-width="0.5" />
  <text x="454.545" y="18" font-family="sans-serif" font-size="12" fill="black">pad2</text>
  <rect x="-3" y="451.545" width="6" height="6" fill="#ff0000" stroke="black" stroke-width="0.5" />
  <text x="8" y="460.545" font-family="sans-serif" font-size="12" fill="black">pad3</text>

</svg>
